<svg width="1344" height="632" viewBox="0 0 1344 632" fill="none" xmlns="http://www.w3.org/2000/svg">
<g opacity="0.8">
<rect width="1344" height="632" rx="35.386" fill="url(#paint0_linear_0_431)"/>
<path d="M247.041 156V120.6H260.673C264.241 120.6 266.921 121.416 268.713 123.048C270.505 124.68 271.401 127.08 271.401 130.248C271.401 132.104 271.049 133.68 270.345 134.976C269.641 136.272 268.785 137.272 267.777 137.976C266.769 138.68 265.809 139.08 264.897 139.176C265.825 139.24 266.721 139.48 267.585 139.896C268.449 140.312 269.153 140.968 269.697 141.864C270.257 142.744 270.537 143.936 270.537 145.44C270.537 146.64 270.537 147.84 270.537 149.04C270.537 150.224 270.537 151.416 270.537 152.616C270.537 153.368 270.601 154.064 270.729 154.704C270.857 155.328 271.017 155.76 271.209 156H264.849C264.689 155.712 264.545 155.272 264.417 154.68C264.305 154.072 264.249 153.384 264.249 152.616C264.249 151.528 264.249 150.464 264.249 149.424C264.249 148.368 264.249 147.288 264.249 146.184C264.249 144.728 263.841 143.624 263.025 142.872C262.209 142.12 260.977 141.744 259.329 141.744H251.529L253.209 139.608V156H247.041ZM253.209 139.08L251.529 136.704H259.377C260.417 136.704 261.353 136.464 262.185 135.984C263.017 135.488 263.673 134.8 264.153 133.92C264.649 133.04 264.897 132.008 264.897 130.824C264.897 129.096 264.401 127.8 263.409 126.936C262.417 126.072 261.009 125.64 259.185 125.64H251.361L253.209 123.408V139.08ZM279.09 145.296V140.808H296.922L296.202 142.008C296.202 141.912 296.202 141.808 296.202 141.696C296.202 141.568 296.202 141.464 296.202 141.384C296.202 140.28 295.954 139.248 295.458 138.288C294.962 137.312 294.21 136.528 293.202 135.936C292.194 135.328 290.914 135.024 289.362 135.024C287.826 135.024 286.49 135.352 285.354 136.008C284.234 136.648 283.362 137.576 282.738 138.792C282.13 140.008 281.826 141.464 281.826 143.16C281.826 144.904 282.122 146.408 282.714 147.672C283.306 148.92 284.17 149.88 285.306 150.552C286.458 151.208 287.858 151.536 289.506 151.536C290.626 151.536 291.594 151.432 292.41 151.224C293.226 151.016 293.89 150.736 294.402 150.384C294.93 150.016 295.322 149.624 295.578 149.208C295.85 148.792 296.01 148.376 296.058 147.96H302.346C302.25 149.032 301.89 150.08 301.266 151.104C300.658 152.112 299.802 153.032 298.698 153.864C297.594 154.68 296.25 155.336 294.666 155.832C293.098 156.312 291.306 156.552 289.29 156.552C286.554 156.552 284.162 155.992 282.114 154.872C280.066 153.752 278.466 152.192 277.314 150.192C276.178 148.192 275.61 145.904 275.61 143.328C275.61 140.688 276.186 138.376 277.338 136.392C278.506 134.408 280.122 132.864 282.186 131.76C284.25 130.64 286.618 130.08 289.29 130.08C292.042 130.08 294.418 130.64 296.418 131.76C298.434 132.88 299.986 134.44 301.074 136.44C302.162 138.424 302.706 140.736 302.706 143.376C302.706 143.712 302.698 144.072 302.682 144.456C302.666 144.84 302.642 145.12 302.61 145.296H279.09ZM316.646 156.528C314.742 156.528 313.07 156.232 311.63 155.64C310.19 155.032 309.062 154.16 308.246 153.024C307.43 151.888 307.022 150.52 307.022 148.92C307.022 147.176 307.494 145.744 308.438 144.624C309.398 143.488 310.686 142.616 312.302 142.008C313.918 141.384 315.71 140.984 317.678 140.808C320.59 140.52 322.622 140.248 323.774 139.992C324.942 139.72 325.526 139.288 325.526 138.696C325.526 138.68 325.526 138.672 325.526 138.672C325.526 138.656 325.526 138.648 325.526 138.648C325.526 137.528 325.022 136.664 324.014 136.056C323.006 135.448 321.582 135.144 319.742 135.144C317.806 135.144 316.318 135.488 315.278 136.176C314.254 136.848 313.742 137.92 313.742 139.392H307.502C307.502 137.392 308.03 135.704 309.086 134.328C310.158 132.936 311.622 131.88 313.478 131.16C315.334 130.44 317.438 130.08 319.79 130.08C321.982 130.08 323.99 130.408 325.814 131.064C327.638 131.72 329.102 132.712 330.206 134.04C331.31 135.368 331.862 137.024 331.862 139.008C331.862 139.344 331.862 139.68 331.862 140.016C331.862 140.352 331.862 140.688 331.862 141.024V150.624C331.862 151.232 331.878 151.832 331.91 152.424C331.958 153 332.046 153.52 332.174 153.984C332.334 154.496 332.526 154.928 332.75 155.28C332.974 155.632 333.15 155.872 333.278 156H327.038C326.926 155.888 326.766 155.672 326.558 155.352C326.366 155.016 326.19 154.632 326.03 154.2C325.87 153.72 325.75 153.208 325.67 152.664C325.59 152.104 325.55 151.488 325.55 150.816L326.798 151.68C326.318 152.656 325.582 153.512 324.59 154.248C323.614 154.968 322.446 155.528 321.086 155.928C319.726 156.328 318.246 156.528 316.646 156.528ZM318.182 151.56C319.494 151.56 320.71 151.336 321.83 150.888C322.95 150.44 323.854 149.752 324.542 148.824C325.23 147.88 325.574 146.672 325.574 145.2V141.792L327.11 143.52C326.086 143.904 324.854 144.224 323.414 144.48C321.974 144.72 320.518 144.912 319.046 145.056C317.158 145.232 315.734 145.56 314.774 146.04C313.83 146.52 313.358 147.304 313.358 148.392C313.358 149.448 313.758 150.24 314.558 150.768C315.358 151.296 316.566 151.56 318.182 151.56ZM348.307 156.528C346.211 156.528 344.267 156.024 342.475 155.016C340.699 153.992 339.275 152.488 338.203 150.504C337.131 148.52 336.595 146.08 336.595 143.184C336.595 140.368 337.139 137.984 338.227 136.032C339.331 134.08 340.771 132.6 342.547 131.592C344.339 130.584 346.259 130.08 348.307 130.08C350.307 130.08 352.155 130.576 353.851 131.568C355.547 132.544 356.907 133.904 357.931 135.648C358.955 137.392 359.467 139.392 359.467 141.648C359.467 141.712 359.467 141.776 359.467 141.84C359.467 141.904 359.467 141.968 359.467 142.032L356.347 142.104C356.347 142.056 356.347 142.008 356.347 141.96C356.347 141.896 356.347 141.84 356.347 141.792C356.347 140.528 356.027 139.424 355.387 138.48C354.763 137.536 353.947 136.8 352.939 136.272C351.947 135.728 350.891 135.456 349.771 135.456C347.931 135.456 346.363 136.08 345.067 137.328C343.771 138.56 343.123 140.512 343.123 143.184C343.123 145.84 343.771 147.8 345.067 149.064C346.363 150.328 347.931 150.96 349.771 150.96C350.939 150.96 352.019 150.68 353.011 150.12C354.003 149.56 354.803 148.792 355.411 147.816C356.035 146.824 356.347 145.688 356.347 144.408L359.467 144.552C359.467 146.792 358.963 148.824 357.955 150.648C356.963 152.456 355.627 153.888 353.947 154.944C352.267 156 350.387 156.528 348.307 156.528ZM356.347 156V118.488H362.683V156H356.347ZM370.551 166.944C369.799 166.944 369.127 166.904 368.535 166.824C367.943 166.76 367.575 166.696 367.431 166.632V161.712C367.639 161.808 367.991 161.88 368.487 161.928C368.999 161.992 369.527 162.024 370.071 162.024C370.951 162.024 371.711 161.848 372.351 161.496C373.007 161.144 373.567 160.656 374.031 160.032C374.495 159.424 374.863 158.712 375.135 157.896L375.687 156.288L366.903 130.512H373.503L379.527 151.776H378.759L384.639 130.512H391.119L382.191 157.56C381.567 159.432 380.807 161.072 379.911 162.48C379.031 163.888 377.855 164.984 376.383 165.768C374.911 166.552 372.967 166.944 370.551 166.944ZM418.903 156.48C417.991 156.48 417.063 156.392 416.119 156.216C415.175 156.04 414.311 155.712 413.527 155.232C412.743 154.752 412.111 154.048 411.631 153.12C411.151 152.192 410.911 150.968 410.911 149.448C410.911 149.096 410.911 148.744 410.911 148.392C410.911 148.024 410.911 147.648 410.911 147.264V135.552H404.887V130.512H407.335C408.167 130.512 408.823 130.48 409.303 130.416C409.783 130.336 410.135 130.16 410.359 129.888C410.583 129.616 410.727 129.192 410.791 128.616C410.871 128.024 410.911 127.208 410.911 126.168V122.112H417.247V130.512H424.831V135.552H417.247V145.776C417.247 146.08 417.247 146.384 417.247 146.688C417.247 146.976 417.247 147.256 417.247 147.528C417.247 148.712 417.391 149.664 417.679 150.384C417.967 151.104 418.647 151.464 419.719 151.464C420.231 151.464 420.711 151.416 421.159 151.32C421.623 151.224 421.967 151.128 422.191 151.032V155.976C421.887 156.088 421.447 156.2 420.871 156.312C420.295 156.424 419.639 156.48 418.903 156.48ZM441.423 156.504C438.735 156.504 436.367 155.944 434.319 154.824C432.271 153.688 430.663 152.12 429.495 150.12C428.343 148.12 427.767 145.832 427.767 143.256C427.767 140.664 428.343 138.384 429.495 136.416C430.663 134.432 432.271 132.88 434.319 131.76C436.367 130.64 438.735 130.08 441.423 130.08C444.111 130.08 446.479 130.64 448.527 131.76C450.575 132.88 452.175 134.432 453.327 136.416C454.495 138.384 455.079 140.664 455.079 143.256C455.079 145.832 454.495 148.12 453.327 150.12C452.175 152.12 450.575 153.688 448.527 154.824C446.479 155.944 444.111 156.504 441.423 156.504ZM441.423 151.344C442.879 151.344 444.151 151.008 445.239 150.336C446.327 149.664 447.175 148.728 447.783 147.528C448.391 146.312 448.695 144.888 448.695 143.256C448.695 141.624 448.391 140.216 447.783 139.032C447.175 137.832 446.327 136.904 445.239 136.248C444.151 135.592 442.879 135.264 441.423 135.264C439.983 135.264 438.711 135.592 437.607 136.248C436.519 136.904 435.671 137.832 435.063 139.032C434.455 140.216 434.151 141.624 434.151 143.256C434.151 144.888 434.455 146.312 435.063 147.528C435.671 148.728 436.519 149.664 437.607 150.336C438.711 151.008 439.983 151.344 441.423 151.344ZM494.909 125.64H483.701L486.029 122.496V156H479.693V122.496L482.141 125.64H470.837V120.6H494.909V125.64ZM496.91 156V130.512H503.222V138.984L501.758 138.168C501.918 137.064 502.214 136.024 502.646 135.048C503.078 134.056 503.654 133.192 504.374 132.456C505.094 131.704 505.966 131.12 506.99 130.704C508.014 130.288 509.182 130.08 510.494 130.08C511.534 130.08 512.35 130.16 512.942 130.32C513.55 130.464 513.926 130.584 514.07 130.68L512.918 136.464C512.758 136.352 512.43 136.216 511.934 136.056C511.454 135.88 510.806 135.792 509.99 135.792C508.694 135.792 507.606 136.016 506.726 136.464C505.862 136.896 505.174 137.488 504.662 138.24C504.15 138.976 503.782 139.792 503.558 140.688C503.334 141.568 503.222 142.448 503.222 143.328V156H496.91ZM526.318 156.528C524.414 156.528 522.742 156.232 521.302 155.64C519.862 155.032 518.734 154.16 517.918 153.024C517.102 151.888 516.694 150.52 516.694 148.92C516.694 147.176 517.166 145.744 518.11 144.624C519.07 143.488 520.358 142.616 521.974 142.008C523.59 141.384 525.382 140.984 527.35 140.808C530.262 140.52 532.294 140.248 533.446 139.992C534.614 139.72 535.198 139.288 535.198 138.696C535.198 138.68 535.198 138.672 535.198 138.672C535.198 138.656 535.198 138.648 535.198 138.648C535.198 137.528 534.694 136.664 533.686 136.056C532.678 135.448 531.254 135.144 529.414 135.144C527.478 135.144 525.99 135.488 524.95 136.176C523.926 136.848 523.414 137.92 523.414 139.392H517.174C517.174 137.392 517.702 135.704 518.758 134.328C519.83 132.936 521.294 131.88 523.15 131.16C525.006 130.44 527.11 130.08 529.462 130.08C531.654 130.08 533.662 130.408 535.486 131.064C537.31 131.72 538.774 132.712 539.878 134.04C540.982 135.368 541.534 137.024 541.534 139.008C541.534 139.344 541.534 139.68 541.534 140.016C541.534 140.352 541.534 140.688 541.534 141.024V150.624C541.534 151.232 541.55 151.832 541.582 152.424C541.63 153 541.718 153.52 541.846 153.984C542.006 154.496 542.198 154.928 542.422 155.28C542.646 155.632 542.822 155.872 542.95 156H536.71C536.598 155.888 536.438 155.672 536.23 155.352C536.038 155.016 535.862 154.632 535.702 154.2C535.542 153.72 535.422 153.208 535.342 152.664C535.262 152.104 535.222 151.488 535.222 150.816L536.47 151.68C535.99 152.656 535.254 153.512 534.262 154.248C533.286 154.968 532.118 155.528 530.758 155.928C529.398 156.328 527.918 156.528 526.318 156.528ZM527.854 151.56C529.166 151.56 530.382 151.336 531.502 150.888C532.622 150.44 533.526 149.752 534.214 148.824C534.902 147.88 535.246 146.672 535.246 145.2V141.792L536.782 143.52C535.758 143.904 534.526 144.224 533.086 144.48C531.646 144.72 530.19 144.912 528.718 145.056C526.83 145.232 525.406 145.56 524.446 146.04C523.502 146.52 523.03 147.304 523.03 148.392C523.03 149.448 523.43 150.24 524.23 150.768C525.03 151.296 526.238 151.56 527.854 151.56ZM565.419 156V144.696C565.419 144.056 565.419 143.496 565.419 143.016C565.419 142.52 565.419 142.072 565.419 141.672C565.419 140.52 565.251 139.488 564.915 138.576C564.595 137.648 564.035 136.92 563.235 136.392C562.451 135.864 561.363 135.6 559.971 135.6C558.755 135.6 557.675 135.896 556.731 136.488C555.787 137.064 555.043 137.864 554.499 138.888C553.971 139.896 553.707 141.064 553.707 142.392L551.571 141.072C551.571 138.944 552.051 137.056 553.011 135.408C553.987 133.744 555.291 132.44 556.923 131.496C558.555 130.552 560.363 130.08 562.347 130.08C564.395 130.08 566.115 130.48 567.507 131.28C568.915 132.08 569.971 133.216 570.675 134.688C571.395 136.16 571.755 137.888 571.755 139.872C571.755 140.64 571.755 141.504 571.755 142.464C571.755 143.424 571.755 144.368 571.755 145.296V156H565.419ZM547.395 156V130.512H553.707V156H547.395ZM588.112 156.528C586.592 156.528 585.144 156.36 583.768 156.024C582.408 155.688 581.192 155.184 580.12 154.512C579.064 153.84 578.224 153.008 577.6 152.016C576.992 151.008 576.688 149.848 576.688 148.536C576.688 148.44 576.688 148.344 576.688 148.248C576.688 148.152 576.688 148.064 576.688 147.984H582.976C582.976 148.064 582.976 148.136 582.976 148.2C582.976 148.248 582.976 148.32 582.976 148.416C582.976 149.456 583.448 150.24 584.392 150.768C585.352 151.28 586.656 151.536 588.304 151.536C589.2 151.536 590.04 151.44 590.824 151.248C591.624 151.056 592.264 150.76 592.744 150.36C593.24 149.96 593.488 149.448 593.488 148.824C593.488 147.816 592.968 147.096 591.928 146.664C590.904 146.232 589.288 145.84 587.08 145.488C585.864 145.28 584.664 145 583.48 144.648C582.296 144.296 581.216 143.824 580.24 143.232C579.28 142.64 578.504 141.904 577.912 141.024C577.336 140.144 577.048 139.072 577.048 137.808C577.048 136.128 577.544 134.72 578.536 133.584C579.544 132.432 580.888 131.56 582.568 130.968C584.264 130.376 586.128 130.08 588.16 130.08C590.112 130.08 591.928 130.4 593.608 131.04C595.288 131.68 596.64 132.6 597.664 133.8C598.704 135 599.224 136.448 599.224 138.144C599.224 138.208 599.224 138.28 599.224 138.36C599.224 138.424 599.224 138.48 599.224 138.528H592.984C592.984 138.48 592.984 138.432 592.984 138.384C592.984 138.336 592.984 138.28 592.984 138.216C592.984 137.48 592.752 136.88 592.288 136.416C591.824 135.952 591.224 135.608 590.488 135.384C589.752 135.16 588.976 135.048 588.16 135.048C587.44 135.048 586.696 135.128 585.928 135.288C585.16 135.432 584.52 135.696 584.008 136.08C583.496 136.448 583.24 136.968 583.24 137.64C583.24 138.28 583.504 138.8 584.032 139.2C584.56 139.6 585.296 139.936 586.24 140.208C587.184 140.464 588.272 140.696 589.504 140.904C590.672 141.096 591.848 141.36 593.032 141.696C594.232 142.032 595.328 142.48 596.32 143.04C597.312 143.6 598.112 144.336 598.72 145.248C599.344 146.144 599.656 147.256 599.656 148.584C599.656 149.992 599.336 151.192 598.696 152.184C598.056 153.176 597.184 154 596.08 154.656C594.992 155.296 593.76 155.768 592.384 156.072C591.008 156.376 589.584 156.528 588.112 156.528ZM607.772 156V135.552H602.372V130.512H607.772V128.232C607.772 126.744 607.972 125.44 608.372 124.32C608.772 123.184 609.316 122.224 610.004 121.44C610.692 120.656 611.476 120.024 612.356 119.544C613.252 119.048 614.204 118.688 615.212 118.464C616.236 118.24 617.252 118.128 618.26 118.128C619.22 118.128 619.948 118.184 620.444 118.296C620.956 118.408 621.3 118.504 621.476 118.584V123.672C621.284 123.608 620.948 123.536 620.468 123.456C620.004 123.36 619.5 123.312 618.956 123.312C617.98 123.312 617.172 123.456 616.532 123.744C615.892 124.016 615.396 124.4 615.044 124.896C614.692 125.392 614.444 125.968 614.3 126.624C614.156 127.264 614.084 127.968 614.084 128.736V130.512H621.14V135.552H614.084V156H607.772ZM636.704 156.504C634.016 156.504 631.648 155.944 629.6 154.824C627.552 153.688 625.944 152.12 624.776 150.12C623.624 148.12 623.048 145.832 623.048 143.256C623.048 140.664 623.624 138.384 624.776 136.416C625.944 134.432 627.552 132.88 629.6 131.76C631.648 130.64 634.016 130.08 636.704 130.08C639.392 130.08 641.76 130.64 643.808 131.76C645.856 132.88 647.456 134.432 648.608 136.416C649.776 138.384 650.36 140.664 650.36 143.256C650.36 145.832 649.776 148.12 648.608 150.12C647.456 152.12 645.856 153.688 643.808 154.824C641.76 155.944 639.392 156.504 636.704 156.504ZM636.704 151.344C638.16 151.344 639.432 151.008 640.52 150.336C641.608 149.664 642.456 148.728 643.064 147.528C643.672 146.312 643.976 144.888 643.976 143.256C643.976 141.624 643.672 140.216 643.064 139.032C642.456 137.832 641.608 136.904 640.52 136.248C639.432 135.592 638.16 135.264 636.704 135.264C635.264 135.264 633.992 135.592 632.888 136.248C631.8 136.904 630.952 137.832 630.344 139.032C629.736 140.216 629.432 141.624 629.432 143.256C629.432 144.888 629.736 146.312 630.344 147.528C630.952 148.728 631.8 149.664 632.888 150.336C633.992 151.008 635.264 151.344 636.704 151.344ZM655.582 156V130.512H661.894V138.984L660.43 138.168C660.59 137.064 660.886 136.024 661.318 135.048C661.75 134.056 662.326 133.192 663.046 132.456C663.766 131.704 664.638 131.12 665.662 130.704C666.686 130.288 667.854 130.08 669.166 130.08C670.206 130.08 671.022 130.16 671.614 130.32C672.222 130.464 672.598 130.584 672.742 130.68L671.59 136.464C671.43 136.352 671.102 136.216 670.606 136.056C670.126 135.88 669.478 135.792 668.662 135.792C667.366 135.792 666.278 136.016 665.398 136.464C664.534 136.896 663.846 137.488 663.334 138.24C662.822 138.976 662.454 139.792 662.23 140.688C662.006 141.568 661.894 142.448 661.894 143.328V156H655.582ZM692.563 156V145.656C692.563 144.712 692.563 143.888 692.563 143.184C692.563 142.464 692.563 141.864 692.563 141.384C692.563 140.76 692.523 140.112 692.443 139.44C692.363 138.752 692.187 138.12 691.915 137.544C691.643 136.968 691.219 136.504 690.643 136.152C690.083 135.784 689.307 135.6 688.315 135.6C687.355 135.6 686.539 135.8 685.867 136.2C685.211 136.584 684.667 137.104 684.235 137.76C683.819 138.4 683.515 139.136 683.323 139.968C683.131 140.784 683.035 141.624 683.035 142.488L680.923 141.072C680.923 138.976 681.315 137.104 682.099 135.456C682.883 133.808 683.995 132.504 685.435 131.544C686.891 130.568 688.611 130.08 690.595 130.08C692.643 130.08 694.267 130.512 695.467 131.376C696.667 132.224 697.523 133.376 698.035 134.832C698.563 136.288 698.827 137.92 698.827 139.728C698.827 140.4 698.827 141.296 698.827 142.416C698.827 143.52 698.827 144.824 698.827 146.328V156H692.563ZM676.723 156V130.512H683.035V156H676.723ZM708.307 156V145.68C708.307 144.672 708.307 143.816 708.307 143.112C708.307 142.408 708.307 141.816 708.307 141.336C708.307 140.664 708.267 139.992 708.187 139.32C708.107 138.632 707.931 138.016 707.659 137.472C707.387 136.912 706.963 136.464 706.387 136.128C705.811 135.776 705.027 135.6 704.035 135.6C703.059 135.6 702.235 135.792 701.563 136.176C700.907 136.56 700.379 137.072 699.979 137.712C699.579 138.352 699.283 139.072 699.091 139.872C698.915 140.672 698.827 141.472 698.827 142.272L696.715 140.88C696.715 138.848 697.099 137.016 697.867 135.384C698.635 133.752 699.739 132.464 701.179 131.52C702.619 130.56 704.331 130.08 706.315 130.08C708.315 130.08 709.923 130.488 711.139 131.304C712.355 132.12 713.235 133.24 713.779 134.664C714.339 136.072 714.619 137.68 714.619 139.488C714.619 140.192 714.619 141.088 714.619 142.176C714.619 143.264 714.619 144.552 714.619 146.04V156H708.307ZM757.603 120.6L747.451 143.76V156H741.115V143.76L731.035 120.6H737.731L745.579 140.424H743.035L750.859 120.6H757.603ZM771.001 156.504C768.313 156.504 765.945 155.944 763.897 154.824C761.849 153.688 760.241 152.12 759.073 150.12C757.921 148.12 757.345 145.832 757.345 143.256C757.345 140.664 757.921 138.384 759.073 136.416C760.241 134.432 761.849 132.88 763.897 131.76C765.945 130.64 768.313 130.08 771.001 130.08C773.689 130.08 776.057 130.64 778.105 131.76C780.153 132.88 781.753 134.432 782.905 136.416C784.073 138.384 784.657 140.664 784.657 143.256C784.657 145.832 784.073 148.12 782.905 150.12C781.753 152.12 780.153 153.688 778.105 154.824C776.057 155.944 773.689 156.504 771.001 156.504ZM771.001 151.344C772.457 151.344 773.729 151.008 774.817 150.336C775.905 149.664 776.753 148.728 777.361 147.528C777.969 146.312 778.273 144.888 778.273 143.256C778.273 141.624 777.969 140.216 777.361 139.032C776.753 137.832 775.905 136.904 774.817 136.248C773.729 135.592 772.457 135.264 771.001 135.264C769.561 135.264 768.289 135.592 767.185 136.248C766.097 136.904 765.249 137.832 764.641 139.032C764.033 140.216 763.729 141.624 763.729 143.256C763.729 144.888 764.033 146.312 764.641 147.528C765.249 148.728 766.097 149.664 767.185 150.336C768.289 151.008 769.561 151.344 771.001 151.344ZM799.047 156.48C797.239 156.48 795.735 156.176 794.535 155.568C793.351 154.96 792.415 154.16 791.727 153.168C791.055 152.176 790.575 151.08 790.287 149.88C790.015 148.68 789.879 147.48 789.879 146.28C789.879 145.688 789.879 145.072 789.879 144.432C789.879 143.792 789.879 143.144 789.879 142.488V130.512H796.215V141.504C796.215 142.08 796.215 142.632 796.215 143.16C796.215 143.688 796.215 144.184 796.215 144.648C796.215 145.784 796.351 146.84 796.623 147.816C796.895 148.776 797.391 149.552 798.111 150.144C798.847 150.736 799.879 151.032 801.207 151.032C802.471 151.032 803.559 150.664 804.471 149.928C805.383 149.176 806.087 148.232 806.583 147.096C807.095 145.96 807.351 144.808 807.351 143.64L809.511 145.08C809.511 146.632 809.271 148.096 808.791 149.472C808.311 150.832 807.615 152.04 806.703 153.096C805.791 154.152 804.687 154.984 803.391 155.592C802.111 156.184 800.663 156.48 799.047 156.48ZM807.351 156V130.512H813.663V156H807.351ZM819.738 156V130.512H826.05V138.984L824.586 138.168C824.746 137.064 825.042 136.024 825.474 135.048C825.906 134.056 826.482 133.192 827.202 132.456C827.922 131.704 828.794 131.12 829.818 130.704C830.842 130.288 832.01 130.08 833.322 130.08C834.362 130.08 835.178 130.16 835.77 130.32C836.378 130.464 836.754 130.584 836.898 130.68L835.746 136.464C835.586 136.352 835.258 136.216 834.762 136.056C834.282 135.88 833.634 135.792 832.818 135.792C831.522 135.792 830.434 136.016 829.554 136.464C828.69 136.896 828.002 137.488 827.49 138.24C826.978 138.976 826.61 139.792 826.386 140.688C826.162 141.568 826.05 142.448 826.05 143.328V156H819.738ZM860.247 156.12L851.223 120.6H858.207L865.119 151.968H864.807L871.647 120.6H878.631L869.679 156.12H860.247ZM883.181 156V130.512H889.421V156H883.181ZM886.325 125.808C885.301 125.808 884.405 125.536 883.637 124.992C882.885 124.432 882.509 123.656 882.509 122.664C882.509 121.688 882.885 120.928 883.637 120.384C884.405 119.84 885.301 119.568 886.325 119.568C887.333 119.568 888.213 119.84 888.965 120.384C889.717 120.928 890.093 121.688 890.093 122.664C890.093 123.656 889.717 124.432 888.965 124.992C888.213 125.536 887.333 125.808 886.325 125.808ZM905.972 156.528C904.452 156.528 903.004 156.36 901.628 156.024C900.268 155.688 899.052 155.184 897.98 154.512C896.924 153.84 896.084 153.008 895.46 152.016C894.852 151.008 894.548 149.848 894.548 148.536C894.548 148.44 894.548 148.344 894.548 148.248C894.548 148.152 894.548 148.064 894.548 147.984H900.836C900.836 148.064 900.836 148.136 900.836 148.2C900.836 148.248 900.836 148.32 900.836 148.416C900.836 149.456 901.308 150.24 902.252 150.768C903.212 151.28 904.516 151.536 906.164 151.536C907.06 151.536 907.9 151.44 908.684 151.248C909.484 151.056 910.124 150.76 910.604 150.36C911.1 149.96 911.348 149.448 911.348 148.824C911.348 147.816 910.828 147.096 909.788 146.664C908.764 146.232 907.148 145.84 904.94 145.488C903.724 145.28 902.524 145 901.34 144.648C900.156 144.296 899.076 143.824 898.1 143.232C897.14 142.64 896.364 141.904 895.772 141.024C895.196 140.144 894.908 139.072 894.908 137.808C894.908 136.128 895.404 134.72 896.396 133.584C897.404 132.432 898.748 131.56 900.428 130.968C902.124 130.376 903.988 130.08 906.02 130.08C907.972 130.08 909.788 130.4 911.468 131.04C913.148 131.68 914.5 132.6 915.524 133.8C916.564 135 917.084 136.448 917.084 138.144C917.084 138.208 917.084 138.28 917.084 138.36C917.084 138.424 917.084 138.48 917.084 138.528H910.844C910.844 138.48 910.844 138.432 910.844 138.384C910.844 138.336 910.844 138.28 910.844 138.216C910.844 137.48 910.612 136.88 910.148 136.416C909.684 135.952 909.084 135.608 908.348 135.384C907.612 135.16 906.836 135.048 906.02 135.048C905.3 135.048 904.556 135.128 903.788 135.288C903.02 135.432 902.38 135.696 901.868 136.08C901.356 136.448 901.1 136.968 901.1 137.64C901.1 138.28 901.364 138.8 901.892 139.2C902.42 139.6 903.156 139.936 904.1 140.208C905.044 140.464 906.132 140.696 907.364 140.904C908.532 141.096 909.708 141.36 910.892 141.696C912.092 142.032 913.188 142.48 914.18 143.04C915.172 143.6 915.972 144.336 916.58 145.248C917.204 146.144 917.516 147.256 917.516 148.584C917.516 149.992 917.196 151.192 916.556 152.184C915.916 153.176 915.044 154 913.94 154.656C912.852 155.296 911.62 155.768 910.244 156.072C908.868 156.376 907.444 156.528 905.972 156.528ZM922.603 156V130.512H928.843V156H922.603ZM925.747 125.808C924.723 125.808 923.827 125.536 923.059 124.992C922.307 124.432 921.931 123.656 921.931 122.664C921.931 121.688 922.307 120.928 923.059 120.384C923.827 119.84 924.723 119.568 925.747 119.568C926.755 119.568 927.635 119.84 928.387 120.384C929.139 120.928 929.515 121.688 929.515 122.664C929.515 123.656 929.139 124.432 928.387 124.992C927.635 125.536 926.755 125.808 925.747 125.808ZM947.626 156.504C944.938 156.504 942.57 155.944 940.522 154.824C938.474 153.688 936.866 152.12 935.698 150.12C934.546 148.12 933.97 145.832 933.97 143.256C933.97 140.664 934.546 138.384 935.698 136.416C936.866 134.432 938.474 132.88 940.522 131.76C942.57 130.64 944.938 130.08 947.626 130.08C950.314 130.08 952.682 130.64 954.73 131.76C956.778 132.88 958.378 134.432 959.53 136.416C960.698 138.384 961.282 140.664 961.282 143.256C961.282 145.832 960.698 148.12 959.53 150.12C958.378 152.12 956.778 153.688 954.73 154.824C952.682 155.944 950.314 156.504 947.626 156.504ZM947.626 151.344C949.082 151.344 950.354 151.008 951.442 150.336C952.53 149.664 953.378 148.728 953.986 147.528C954.594 146.312 954.898 144.888 954.898 143.256C954.898 141.624 954.594 140.216 953.986 139.032C953.378 137.832 952.53 136.904 951.442 136.248C950.354 135.592 949.082 135.264 947.626 135.264C946.186 135.264 944.914 135.592 943.81 136.248C942.722 136.904 941.874 137.832 941.266 139.032C940.658 140.216 940.354 141.624 940.354 143.256C940.354 144.888 940.658 146.312 941.266 147.528C941.874 148.728 942.722 149.664 943.81 150.336C944.914 151.008 946.186 151.344 947.626 151.344ZM984.528 156V144.696C984.528 144.056 984.528 143.496 984.528 143.016C984.528 142.52 984.528 142.072 984.528 141.672C984.528 140.52 984.36 139.488 984.024 138.576C983.704 137.648 983.144 136.92 982.344 136.392C981.56 135.864 980.472 135.6 979.08 135.6C977.864 135.6 976.784 135.896 975.84 136.488C974.896 137.064 974.152 137.864 973.608 138.888C973.08 139.896 972.816 141.064 972.816 142.392L970.68 141.072C970.68 138.944 971.16 137.056 972.12 135.408C973.096 133.744 974.4 132.44 976.032 131.496C977.664 130.552 979.472 130.08 981.456 130.08C983.504 130.08 985.224 130.48 986.616 131.28C988.024 132.08 989.08 133.216 989.784 134.688C990.504 136.16 990.864 137.888 990.864 139.872C990.864 140.64 990.864 141.504 990.864 142.464C990.864 143.424 990.864 144.368 990.864 145.296V156H984.528ZM966.504 156V130.512H972.816V156H966.504ZM1008.81 156V130.512H1015.05V156H1008.81ZM1011.95 125.808C1010.93 125.808 1010.03 125.536 1009.26 124.992C1008.51 124.432 1008.13 123.656 1008.13 122.664C1008.13 121.688 1008.51 120.928 1009.26 120.384C1010.03 119.84 1010.93 119.568 1011.95 119.568C1012.96 119.568 1013.84 119.84 1014.59 120.384C1015.34 120.928 1015.72 121.688 1015.72 122.664C1015.72 123.656 1015.34 124.432 1014.59 124.992C1013.84 125.536 1012.96 125.808 1011.95 125.808ZM1039.32 156V144.696C1039.32 144.056 1039.32 143.496 1039.32 143.016C1039.32 142.52 1039.32 142.072 1039.32 141.672C1039.32 140.52 1039.16 139.488 1038.82 138.576C1038.5 137.648 1037.94 136.92 1037.14 136.392C1036.36 135.864 1035.27 135.6 1033.88 135.6C1032.66 135.6 1031.58 135.896 1030.64 136.488C1029.69 137.064 1028.95 137.864 1028.4 138.888C1027.88 139.896 1027.61 141.064 1027.61 142.392L1025.48 141.072C1025.48 138.944 1025.96 137.056 1026.92 135.408C1027.89 133.744 1029.2 132.44 1030.83 131.496C1032.46 130.552 1034.27 130.08 1036.25 130.08C1038.3 130.08 1040.02 130.48 1041.41 131.28C1042.82 132.08 1043.88 133.216 1044.58 134.688C1045.3 136.16 1045.66 137.888 1045.66 139.872C1045.66 140.64 1045.66 141.504 1045.66 142.464C1045.66 143.424 1045.66 144.368 1045.66 145.296V156H1039.32ZM1021.3 156V130.512H1027.61V156H1021.3ZM1062.83 156.48C1061.91 156.48 1060.99 156.392 1060.04 156.216C1059.1 156.04 1058.23 155.712 1057.45 155.232C1056.67 154.752 1056.03 154.048 1055.55 153.12C1055.07 152.192 1054.83 150.968 1054.83 149.448C1054.83 149.096 1054.83 148.744 1054.83 148.392C1054.83 148.024 1054.83 147.648 1054.83 147.264V135.552H1048.81V130.512H1051.26C1052.09 130.512 1052.75 130.48 1053.23 130.416C1053.71 130.336 1054.06 130.16 1054.28 129.888C1054.51 129.616 1054.65 129.192 1054.71 128.616C1054.79 128.024 1054.83 127.208 1054.83 126.168V122.112H1061.17V130.512H1068.75V135.552H1061.17V145.776C1061.17 146.08 1061.17 146.384 1061.17 146.688C1061.17 146.976 1061.17 147.256 1061.17 147.528C1061.17 148.712 1061.31 149.664 1061.6 150.384C1061.89 151.104 1062.57 151.464 1063.64 151.464C1064.15 151.464 1064.63 151.416 1065.08 151.32C1065.55 151.224 1065.89 151.128 1066.11 151.032V155.976C1065.81 156.088 1065.37 156.2 1064.79 156.312C1064.22 156.424 1063.56 156.48 1062.83 156.48ZM1085.34 156.504C1082.66 156.504 1080.29 155.944 1078.24 154.824C1076.19 153.688 1074.58 152.12 1073.42 150.12C1072.26 148.12 1071.69 145.832 1071.69 143.256C1071.69 140.664 1072.26 138.384 1073.42 136.416C1074.58 134.432 1076.19 132.88 1078.24 131.76C1080.29 130.64 1082.66 130.08 1085.34 130.08C1088.03 130.08 1090.4 130.64 1092.45 131.76C1094.5 132.88 1096.1 134.432 1097.25 136.416C1098.42 138.384 1099 140.664 1099 143.256C1099 145.832 1098.42 148.12 1097.25 150.12C1096.1 152.12 1094.5 153.688 1092.45 154.824C1090.4 155.944 1088.03 156.504 1085.34 156.504ZM1085.34 151.344C1086.8 151.344 1088.07 151.008 1089.16 150.336C1090.25 149.664 1091.1 148.728 1091.7 147.528C1092.31 146.312 1092.62 144.888 1092.62 143.256C1092.62 141.624 1092.31 140.216 1091.7 139.032C1091.1 137.832 1090.25 136.904 1089.16 136.248C1088.07 135.592 1086.8 135.264 1085.34 135.264C1083.9 135.264 1082.63 135.592 1081.53 136.248C1080.44 136.904 1079.59 137.832 1078.98 139.032C1078.38 140.216 1078.07 141.624 1078.07 143.256C1078.07 144.888 1078.38 146.312 1078.98 147.528C1079.59 148.728 1080.44 149.664 1081.53 150.336C1082.63 151.008 1083.9 151.344 1085.34 151.344ZM362.307 224V188.6H375.939C379.507 188.6 382.187 189.416 383.979 191.048C385.771 192.68 386.667 195.08 386.667 198.248C386.667 200.104 386.315 201.68 385.611 202.976C384.907 204.272 384.051 205.272 383.043 205.976C382.035 206.68 381.075 207.08 380.163 207.176C381.091 207.24 381.987 207.48 382.851 207.896C383.715 208.312 384.419 208.968 384.963 209.864C385.523 210.744 385.803 211.936 385.803 213.44C385.803 214.64 385.803 215.84 385.803 217.04C385.803 218.224 385.803 219.416 385.803 220.616C385.803 221.368 385.867 222.064 385.995 222.704C386.123 223.328 386.283 223.76 386.475 224H380.115C379.955 223.712 379.811 223.272 379.683 222.68C379.571 222.072 379.515 221.384 379.515 220.616C379.515 219.528 379.515 218.464 379.515 217.424C379.515 216.368 379.515 215.288 379.515 214.184C379.515 212.728 379.107 211.624 378.291 210.872C377.475 210.12 376.243 209.744 374.595 209.744H366.795L368.475 207.608V224H362.307ZM368.475 207.08L366.795 204.704H374.643C375.683 204.704 376.619 204.464 377.451 203.984C378.283 203.488 378.939 202.8 379.419 201.92C379.915 201.04 380.163 200.008 380.163 198.824C380.163 197.096 379.667 195.8 378.675 194.936C377.683 194.072 376.275 193.64 374.451 193.64H366.627L368.475 191.408V207.08ZM394.356 213.296V208.808H412.188L411.468 210.008C411.468 209.912 411.468 209.808 411.468 209.696C411.468 209.568 411.468 209.464 411.468 209.384C411.468 208.28 411.22 207.248 410.724 206.288C410.228 205.312 409.476 204.528 408.468 203.936C407.46 203.328 406.18 203.024 404.628 203.024C403.092 203.024 401.756 203.352 400.62 204.008C399.5 204.648 398.628 205.576 398.004 206.792C397.396 208.008 397.092 209.464 397.092 211.16C397.092 212.904 397.388 214.408 397.98 215.672C398.572 216.92 399.436 217.88 400.572 218.552C401.724 219.208 403.124 219.536 404.772 219.536C405.892 219.536 406.86 219.432 407.676 219.224C408.492 219.016 409.156 218.736 409.668 218.384C410.196 218.016 410.588 217.624 410.844 217.208C411.116 216.792 411.276 216.376 411.324 215.96H417.612C417.516 217.032 417.156 218.08 416.532 219.104C415.924 220.112 415.068 221.032 413.964 221.864C412.86 222.68 411.516 223.336 409.932 223.832C408.364 224.312 406.572 224.552 404.556 224.552C401.82 224.552 399.428 223.992 397.38 222.872C395.332 221.752 393.732 220.192 392.58 218.192C391.444 216.192 390.876 213.904 390.876 211.328C390.876 208.688 391.452 206.376 392.604 204.392C393.772 202.408 395.388 200.864 397.452 199.76C399.516 198.64 401.884 198.08 404.556 198.08C407.308 198.08 409.684 198.64 411.684 199.76C413.7 200.88 415.252 202.44 416.34 204.44C417.428 206.424 417.972 208.736 417.972 211.376C417.972 211.712 417.964 212.072 417.948 212.456C417.932 212.84 417.908 213.12 417.876 213.296H394.356ZM431.912 224.528C430.008 224.528 428.336 224.232 426.896 223.64C425.456 223.032 424.328 222.16 423.512 221.024C422.696 219.888 422.288 218.52 422.288 216.92C422.288 215.176 422.76 213.744 423.704 212.624C424.664 211.488 425.952 210.616 427.568 210.008C429.184 209.384 430.976 208.984 432.944 208.808C435.856 208.52 437.888 208.248 439.04 207.992C440.208 207.72 440.792 207.288 440.792 206.696C440.792 206.68 440.792 206.672 440.792 206.672C440.792 206.656 440.792 206.648 440.792 206.648C440.792 205.528 440.288 204.664 439.28 204.056C438.272 203.448 436.848 203.144 435.008 203.144C433.072 203.144 431.584 203.488 430.544 204.176C429.52 204.848 429.008 205.92 429.008 207.392H422.768C422.768 205.392 423.296 203.704 424.352 202.328C425.424 200.936 426.888 199.88 428.744 199.16C430.6 198.44 432.704 198.08 435.056 198.08C437.248 198.08 439.256 198.408 441.08 199.064C442.904 199.72 444.368 200.712 445.472 202.04C446.576 203.368 447.128 205.024 447.128 207.008C447.128 207.344 447.128 207.68 447.128 208.016C447.128 208.352 447.128 208.688 447.128 209.024V218.624C447.128 219.232 447.144 219.832 447.176 220.424C447.224 221 447.312 221.52 447.44 221.984C447.6 222.496 447.792 222.928 448.016 223.28C448.24 223.632 448.416 223.872 448.544 224H442.304C442.192 223.888 442.032 223.672 441.824 223.352C441.632 223.016 441.456 222.632 441.296 222.2C441.136 221.72 441.016 221.208 440.936 220.664C440.856 220.104 440.816 219.488 440.816 218.816L442.064 219.68C441.584 220.656 440.848 221.512 439.856 222.248C438.88 222.968 437.712 223.528 436.352 223.928C434.992 224.328 433.512 224.528 431.912 224.528ZM433.448 219.56C434.76 219.56 435.976 219.336 437.096 218.888C438.216 218.44 439.12 217.752 439.808 216.824C440.496 215.88 440.84 214.672 440.84 213.2V209.792L442.376 211.52C441.352 211.904 440.12 212.224 438.68 212.48C437.24 212.72 435.784 212.912 434.312 213.056C432.424 213.232 431 213.56 430.04 214.04C429.096 214.52 428.624 215.304 428.624 216.392C428.624 217.448 429.024 218.24 429.824 218.768C430.624 219.296 431.832 219.56 433.448 219.56ZM459.564 186.488V224H453.348V186.488H459.564ZM465.9 224V198.512H472.14V224H465.9ZM469.044 193.808C468.02 193.808 467.124 193.536 466.356 192.992C465.604 192.432 465.228 191.656 465.228 190.664C465.228 189.688 465.604 188.928 466.356 188.384C467.124 187.84 468.02 187.568 469.044 187.568C470.052 187.568 470.932 187.84 471.684 188.384C472.436 188.928 472.812 189.688 472.812 190.664C472.812 191.656 472.436 192.432 471.684 192.992C470.932 193.536 470.052 193.808 469.044 193.808ZM490.107 224.48C489.195 224.48 488.267 224.392 487.323 224.216C486.379 224.04 485.515 223.712 484.731 223.232C483.947 222.752 483.315 222.048 482.835 221.12C482.355 220.192 482.115 218.968 482.115 217.448C482.115 217.096 482.115 216.744 482.115 216.392C482.115 216.024 482.115 215.648 482.115 215.264V203.552H476.091V198.512H478.539C479.371 198.512 480.027 198.48 480.507 198.416C480.987 198.336 481.339 198.16 481.563 197.888C481.787 197.616 481.931 197.192 481.995 196.616C482.075 196.024 482.115 195.208 482.115 194.168V190.112H488.451V198.512H496.035V203.552H488.451V213.776C488.451 214.08 488.451 214.384 488.451 214.688C488.451 214.976 488.451 215.256 488.451 215.528C488.451 216.712 488.595 217.664 488.883 218.384C489.171 219.104 489.851 219.464 490.923 219.464C491.435 219.464 491.915 219.416 492.363 219.32C492.827 219.224 493.171 219.128 493.395 219.032V223.976C493.091 224.088 492.651 224.2 492.075 224.312C491.499 224.424 490.843 224.48 490.107 224.48ZM502.457 234.944C501.705 234.944 501.033 234.904 500.441 234.824C499.849 234.76 499.481 234.696 499.337 234.632V229.712C499.545 229.808 499.897 229.88 500.393 229.928C500.905 229.992 501.433 230.024 501.977 230.024C502.857 230.024 503.617 229.848 504.257 229.496C504.913 229.144 505.473 228.656 505.937 228.032C506.401 227.424 506.769 226.712 507.041 225.896L507.593 224.288L498.809 198.512H505.409L511.433 219.776H510.665L516.545 198.512H523.025L514.097 225.56C513.473 227.432 512.713 229.072 511.817 230.48C510.937 231.888 509.761 232.984 508.289 233.768C506.817 234.552 504.873 234.944 502.457 234.944ZM534.418 214.784C534.418 213.296 534.642 211.976 535.09 210.824C535.554 209.672 536.13 208.624 536.818 207.68C537.522 206.72 538.234 205.824 538.954 204.992C539.562 204.288 540.13 203.584 540.658 202.88C541.186 202.176 541.61 201.432 541.93 200.648C542.25 199.864 542.41 199.008 542.41 198.08C542.41 196.368 541.978 195.08 541.114 194.216C540.266 193.336 539.002 192.896 537.322 192.896C535.562 192.896 534.202 193.432 533.242 194.504C532.282 195.576 531.802 197.2 531.802 199.376H526.21C526.21 196.832 526.698 194.752 527.674 193.136C528.65 191.504 529.97 190.296 531.634 189.512C533.298 188.728 535.17 188.336 537.25 188.336C539.314 188.336 541.146 188.712 542.746 189.464C544.362 190.216 545.634 191.344 546.562 192.848C547.506 194.336 547.978 196.192 547.978 198.416C547.978 199.84 547.738 201.096 547.258 202.184C546.794 203.272 546.194 204.248 545.458 205.112C544.738 205.976 543.994 206.8 543.226 207.584C542.202 208.656 541.282 209.744 540.466 210.848C539.666 211.936 539.266 213.248 539.266 214.784H534.418ZM537.13 224.672C536.138 224.672 535.29 224.328 534.586 223.64C533.898 222.952 533.554 222.112 533.554 221.12C533.554 220.144 533.898 219.312 534.586 218.624C535.29 217.92 536.138 217.568 537.13 217.568C538.122 217.568 538.962 217.92 539.65 218.624C540.338 219.312 540.682 220.144 540.682 221.12C540.682 222.112 540.338 222.952 539.65 223.64C538.962 224.328 538.122 224.672 537.13 224.672ZM566.073 224V188.6H572.409V222.104L569.553 218.768H585.825V224H566.073ZM593.247 213.296V208.808H611.079L610.359 210.008C610.359 209.912 610.359 209.808 610.359 209.696C610.359 209.568 610.359 209.464 610.359 209.384C610.359 208.28 610.111 207.248 609.615 206.288C609.119 205.312 608.367 204.528 607.359 203.936C606.351 203.328 605.071 203.024 603.519 203.024C601.983 203.024 600.647 203.352 599.511 204.008C598.391 204.648 597.519 205.576 596.895 206.792C596.287 208.008 595.983 209.464 595.983 211.16C595.983 212.904 596.279 214.408 596.871 215.672C597.463 216.92 598.327 217.88 599.463 218.552C600.615 219.208 602.015 219.536 603.663 219.536C604.783 219.536 605.751 219.432 606.567 219.224C607.383 219.016 608.047 218.736 608.559 218.384C609.087 218.016 609.479 217.624 609.735 217.208C610.007 216.792 610.167 216.376 610.215 215.96H616.503C616.407 217.032 616.047 218.08 615.423 219.104C614.815 220.112 613.959 221.032 612.855 221.864C611.751 222.68 610.407 223.336 608.823 223.832C607.255 224.312 605.463 224.552 603.447 224.552C600.711 224.552 598.319 223.992 596.271 222.872C594.223 221.752 592.623 220.192 591.471 218.192C590.335 216.192 589.767 213.904 589.767 211.328C589.767 208.688 590.343 206.376 591.495 204.392C592.663 202.408 594.279 200.864 596.343 199.76C598.407 198.64 600.775 198.08 603.447 198.08C606.199 198.08 608.575 198.64 610.575 199.76C612.591 200.88 614.143 202.44 615.231 204.44C616.319 206.424 616.863 208.736 616.863 211.376C616.863 211.712 616.855 212.072 616.839 212.456C616.823 212.84 616.799 213.12 616.767 213.296H593.247ZM633.497 224.48C632.585 224.48 631.657 224.392 630.713 224.216C629.769 224.04 628.905 223.712 628.121 223.232C627.337 222.752 626.705 222.048 626.225 221.12C625.745 220.192 625.505 218.968 625.505 217.448C625.505 217.096 625.505 216.744 625.505 216.392C625.505 216.024 625.505 215.648 625.505 215.264V203.552H619.481V198.512H621.929C622.761 198.512 623.417 198.48 623.897 198.416C624.377 198.336 624.729 198.16 624.953 197.888C625.177 197.616 625.321 197.192 625.385 196.616C625.465 196.024 625.505 195.208 625.505 194.168V190.112H631.841V198.512H639.425V203.552H631.841V213.776C631.841 214.08 631.841 214.384 631.841 214.688C631.841 214.976 631.841 215.256 631.841 215.528C631.841 216.712 631.985 217.664 632.273 218.384C632.561 219.104 633.241 219.464 634.313 219.464C634.825 219.464 635.305 219.416 635.753 219.32C636.217 219.224 636.561 219.128 636.785 219.032V223.976C636.481 224.088 636.041 224.2 635.465 224.312C634.889 224.424 634.233 224.48 633.497 224.48ZM647.503 188.6L646.879 199.88H643.279L642.679 188.6H647.503ZM660.675 224.528C659.155 224.528 657.707 224.36 656.331 224.024C654.971 223.688 653.755 223.184 652.683 222.512C651.627 221.84 650.787 221.008 650.163 220.016C649.555 219.008 649.251 217.848 649.251 216.536C649.251 216.44 649.251 216.344 649.251 216.248C649.251 216.152 649.251 216.064 649.251 215.984H655.539C655.539 216.064 655.539 216.136 655.539 216.2C655.539 216.248 655.539 216.32 655.539 216.416C655.539 217.456 656.011 218.24 656.955 218.768C657.915 219.28 659.219 219.536 660.867 219.536C661.763 219.536 662.603 219.44 663.387 219.248C664.187 219.056 664.827 218.76 665.307 218.36C665.803 217.96 666.051 217.448 666.051 216.824C666.051 215.816 665.531 215.096 664.491 214.664C663.467 214.232 661.851 213.84 659.643 213.488C658.427 213.28 657.227 213 656.043 212.648C654.859 212.296 653.779 211.824 652.803 211.232C651.843 210.64 651.067 209.904 650.475 209.024C649.899 208.144 649.611 207.072 649.611 205.808C649.611 204.128 650.107 202.72 651.099 201.584C652.107 200.432 653.451 199.56 655.131 198.968C656.827 198.376 658.691 198.08 660.723 198.08C662.675 198.08 664.491 198.4 666.171 199.04C667.851 199.68 669.203 200.6 670.227 201.8C671.267 203 671.787 204.448 671.787 206.144C671.787 206.208 671.787 206.28 671.787 206.36C671.787 206.424 671.787 206.48 671.787 206.528H665.547C665.547 206.48 665.547 206.432 665.547 206.384C665.547 206.336 665.547 206.28 665.547 206.216C665.547 205.48 665.315 204.88 664.851 204.416C664.387 203.952 663.787 203.608 663.051 203.384C662.315 203.16 661.539 203.048 660.723 203.048C660.003 203.048 659.259 203.128 658.491 203.288C657.723 203.432 657.083 203.696 656.571 204.08C656.059 204.448 655.803 204.968 655.803 205.64C655.803 206.28 656.067 206.8 656.595 207.2C657.123 207.6 657.859 207.936 658.803 208.208C659.747 208.464 660.835 208.696 662.067 208.904C663.235 209.096 664.411 209.36 665.595 209.696C666.795 210.032 667.891 210.48 668.883 211.04C669.875 211.6 670.675 212.336 671.283 213.248C671.907 214.144 672.219 215.256 672.219 216.584C672.219 217.992 671.899 219.192 671.259 220.184C670.619 221.176 669.747 222 668.643 222.656C667.555 223.296 666.323 223.768 664.947 224.072C663.571 224.376 662.147 224.528 660.675 224.528ZM703.25 224.528C700.498 224.528 697.994 223.824 695.738 222.416C693.498 221.008 691.714 218.952 690.386 216.248C689.058 213.544 688.394 210.256 688.394 206.384C688.394 202.496 689.082 199.192 690.458 196.472C691.834 193.752 693.69 191.68 696.026 190.256C698.378 188.816 701.002 188.096 703.898 188.096C706.298 188.096 708.33 188.496 709.994 189.296C711.674 190.08 713.034 191.096 714.074 192.344C715.13 193.592 715.89 194.904 716.354 196.28C716.834 197.656 717.074 198.936 717.074 200.12C717.074 200.168 717.074 200.216 717.074 200.264C717.074 200.312 717.074 200.36 717.074 200.408H710.93C710.93 200.36 710.93 200.312 710.93 200.264C710.93 200.216 710.93 200.168 710.93 200.12C710.93 199.288 710.786 198.472 710.498 197.672C710.21 196.872 709.77 196.144 709.178 195.488C708.586 194.832 707.85 194.312 706.97 193.928C706.09 193.544 705.066 193.352 703.898 193.352C702.314 193.352 700.826 193.792 699.434 194.672C698.058 195.552 696.938 196.952 696.074 198.872C695.226 200.776 694.802 203.28 694.802 206.384C694.802 208.736 695.042 210.736 695.522 212.384C696.002 214.032 696.65 215.368 697.466 216.392C698.298 217.416 699.242 218.168 700.298 218.648C701.37 219.112 702.498 219.344 703.682 219.344C705.282 219.344 706.61 219.072 707.666 218.528C708.738 217.984 709.57 217.304 710.162 216.488C710.77 215.672 711.154 214.872 711.314 214.088V211.328H703.754V206.576H716.978V224H713.33L712.802 220.064C712.69 220.352 712.426 220.744 712.01 221.24C711.61 221.736 711.034 222.24 710.282 222.752C709.53 223.248 708.57 223.664 707.402 224C706.25 224.352 704.866 224.528 703.25 224.528ZM725.668 213.296V208.808H743.5L742.78 210.008C742.78 209.912 742.78 209.808 742.78 209.696C742.78 209.568 742.78 209.464 742.78 209.384C742.78 208.28 742.532 207.248 742.036 206.288C741.54 205.312 740.788 204.528 739.78 203.936C738.772 203.328 737.492 203.024 735.94 203.024C734.404 203.024 733.068 203.352 731.932 204.008C730.812 204.648 729.94 205.576 729.316 206.792C728.708 208.008 728.404 209.464 728.404 211.16C728.404 212.904 728.7 214.408 729.292 215.672C729.884 216.92 730.748 217.88 731.884 218.552C733.036 219.208 734.436 219.536 736.084 219.536C737.204 219.536 738.172 219.432 738.988 219.224C739.804 219.016 740.468 218.736 740.98 218.384C741.508 218.016 741.9 217.624 742.156 217.208C742.428 216.792 742.588 216.376 742.636 215.96H748.924C748.828 217.032 748.468 218.08 747.844 219.104C747.236 220.112 746.38 221.032 745.276 221.864C744.172 222.68 742.828 223.336 741.244 223.832C739.676 224.312 737.884 224.552 735.868 224.552C733.132 224.552 730.74 223.992 728.692 222.872C726.644 221.752 725.044 220.192 723.892 218.192C722.756 216.192 722.188 213.904 722.188 211.328C722.188 208.688 722.764 206.376 723.916 204.392C725.084 202.408 726.7 200.864 728.764 199.76C730.828 198.64 733.196 198.08 735.868 198.08C738.62 198.08 740.996 198.64 742.996 199.76C745.012 200.88 746.564 202.44 747.652 204.44C748.74 206.424 749.284 208.736 749.284 211.376C749.284 211.712 749.276 212.072 749.26 212.456C749.244 212.84 749.22 213.12 749.188 213.296H725.668ZM765.919 224.48C765.007 224.48 764.079 224.392 763.135 224.216C762.191 224.04 761.327 223.712 760.543 223.232C759.759 222.752 759.127 222.048 758.647 221.12C758.167 220.192 757.927 218.968 757.927 217.448C757.927 217.096 757.927 216.744 757.927 216.392C757.927 216.024 757.927 215.648 757.927 215.264V203.552H751.903V198.512H754.351C755.183 198.512 755.839 198.48 756.319 198.416C756.799 198.336 757.151 198.16 757.375 197.888C757.599 197.616 757.743 197.192 757.807 196.616C757.887 196.024 757.927 195.208 757.927 194.168V190.112H764.263V198.512H771.847V203.552H764.263V213.776C764.263 214.08 764.263 214.384 764.263 214.688C764.263 214.976 764.263 215.256 764.263 215.528C764.263 216.712 764.407 217.664 764.695 218.384C764.983 219.104 765.663 219.464 766.735 219.464C767.247 219.464 767.727 219.416 768.175 219.32C768.639 219.224 768.983 219.128 769.207 219.032V223.976C768.903 224.088 768.463 224.2 767.887 224.312C767.311 224.424 766.655 224.48 765.919 224.48ZM800.085 224.528C797.573 224.528 795.381 224.128 793.509 223.328C791.637 222.528 790.181 221.328 789.141 219.728C788.101 218.112 787.581 216.112 787.581 213.728C787.581 213.456 787.581 213.216 787.581 213.008C787.581 212.784 787.581 212.536 787.581 212.264H793.893C793.893 212.504 793.893 212.728 793.893 212.936C793.893 213.128 793.893 213.352 793.893 213.608C793.893 215.528 794.413 216.968 795.453 217.928C796.509 218.872 798.061 219.344 800.109 219.344C802.173 219.344 803.749 219 804.837 218.312C805.941 217.624 806.493 216.52 806.493 215C806.493 213.896 806.117 212.96 805.365 212.192C804.629 211.408 803.613 210.72 802.317 210.128C801.021 209.536 799.549 208.984 797.901 208.472C796.045 207.896 794.357 207.152 792.837 206.24C791.317 205.328 790.101 204.176 789.189 202.784C788.277 201.392 787.821 199.68 787.821 197.648C787.821 195.616 788.341 193.888 789.381 192.464C790.437 191.04 791.877 189.96 793.701 189.224C795.541 188.472 797.629 188.096 799.965 188.096C802.413 188.096 804.565 188.48 806.421 189.248C808.293 190.016 809.757 191.16 810.813 192.68C811.869 194.2 812.397 196.096 812.397 198.368C812.397 198.672 812.397 198.936 812.397 199.16C812.397 199.384 812.397 199.64 812.397 199.928H806.061C806.061 199.72 806.061 199.512 806.061 199.304C806.061 199.08 806.061 198.864 806.061 198.656C806.061 196.832 805.565 195.488 804.573 194.624C803.581 193.744 802.077 193.304 800.061 193.304C798.093 193.304 796.581 193.648 795.525 194.336C794.469 195.024 793.941 196.12 793.941 197.624C793.941 198.744 794.301 199.68 795.021 200.432C795.741 201.184 796.725 201.84 797.973 202.4C799.237 202.944 800.669 203.496 802.269 204.056C804.397 204.76 806.237 205.56 807.789 206.456C809.341 207.336 810.541 208.44 811.389 209.768C812.237 211.08 812.661 212.752 812.661 214.784C812.661 216.864 812.133 218.632 811.077 220.088C810.037 221.528 808.573 222.632 806.685 223.4C804.813 224.152 802.613 224.528 800.085 224.528ZM829.669 224.48C828.757 224.48 827.829 224.392 826.885 224.216C825.941 224.04 825.077 223.712 824.293 223.232C823.509 222.752 822.877 222.048 822.397 221.12C821.917 220.192 821.677 218.968 821.677 217.448C821.677 217.096 821.677 216.744 821.677 216.392C821.677 216.024 821.677 215.648 821.677 215.264V203.552H815.653V198.512H818.101C818.933 198.512 819.589 198.48 820.069 198.416C820.549 198.336 820.901 198.16 821.125 197.888C821.349 197.616 821.493 197.192 821.557 196.616C821.637 196.024 821.677 195.208 821.677 194.168V190.112H828.013V198.512H835.597V203.552H828.013V213.776C828.013 214.08 828.013 214.384 828.013 214.688C828.013 214.976 828.013 215.256 828.013 215.528C828.013 216.712 828.157 217.664 828.445 218.384C828.733 219.104 829.413 219.464 830.485 219.464C830.997 219.464 831.477 219.416 831.925 219.32C832.389 219.224 832.733 219.128 832.957 219.032V223.976C832.653 224.088 832.213 224.2 831.637 224.312C831.061 224.424 830.405 224.48 829.669 224.48ZM848.396 224.528C846.492 224.528 844.82 224.232 843.38 223.64C841.94 223.032 840.812 222.16 839.996 221.024C839.18 219.888 838.772 218.52 838.772 216.92C838.772 215.176 839.244 213.744 840.188 212.624C841.148 211.488 842.436 210.616 844.052 210.008C845.668 209.384 847.46 208.984 849.428 208.808C852.34 208.52 854.372 208.248 855.524 207.992C856.692 207.72 857.276 207.288 857.276 206.696C857.276 206.68 857.276 206.672 857.276 206.672C857.276 206.656 857.276 206.648 857.276 206.648C857.276 205.528 856.772 204.664 855.764 204.056C854.756 203.448 853.332 203.144 851.492 203.144C849.556 203.144 848.068 203.488 847.028 204.176C846.004 204.848 845.492 205.92 845.492 207.392H839.252C839.252 205.392 839.78 203.704 840.836 202.328C841.908 200.936 843.372 199.88 845.228 199.16C847.084 198.44 849.188 198.08 851.54 198.08C853.732 198.08 855.74 198.408 857.564 199.064C859.388 199.72 860.852 200.712 861.956 202.04C863.06 203.368 863.612 205.024 863.612 207.008C863.612 207.344 863.612 207.68 863.612 208.016C863.612 208.352 863.612 208.688 863.612 209.024V218.624C863.612 219.232 863.628 219.832 863.66 220.424C863.708 221 863.796 221.52 863.924 221.984C864.084 222.496 864.276 222.928 864.5 223.28C864.724 223.632 864.9 223.872 865.028 224H858.788C858.676 223.888 858.516 223.672 858.308 223.352C858.116 223.016 857.94 222.632 857.78 222.2C857.62 221.72 857.5 221.208 857.42 220.664C857.34 220.104 857.3 219.488 857.3 218.816L858.548 219.68C858.068 220.656 857.332 221.512 856.34 222.248C855.364 222.968 854.196 223.528 852.836 223.928C851.476 224.328 849.996 224.528 848.396 224.528ZM849.932 219.56C851.244 219.56 852.46 219.336 853.58 218.888C854.7 218.44 855.604 217.752 856.292 216.824C856.98 215.88 857.324 214.672 857.324 213.2V209.792L858.86 211.52C857.836 211.904 856.604 212.224 855.164 212.48C853.724 212.72 852.268 212.912 850.796 213.056C848.908 213.232 847.484 213.56 846.524 214.04C845.58 214.52 845.108 215.304 845.108 216.392C845.108 217.448 845.508 218.24 846.308 218.768C847.108 219.296 848.316 219.56 849.932 219.56ZM869.473 224V198.512H875.785V206.984L874.321 206.168C874.481 205.064 874.777 204.024 875.209 203.048C875.641 202.056 876.217 201.192 876.937 200.456C877.657 199.704 878.529 199.12 879.553 198.704C880.577 198.288 881.745 198.08 883.057 198.08C884.097 198.08 884.913 198.16 885.505 198.32C886.113 198.464 886.489 198.584 886.633 198.68L885.481 204.464C885.321 204.352 884.993 204.216 884.497 204.056C884.017 203.88 883.369 203.792 882.553 203.792C881.257 203.792 880.169 204.016 879.289 204.464C878.425 204.896 877.737 205.488 877.225 206.24C876.713 206.976 876.345 207.792 876.121 208.688C875.897 209.568 875.785 210.448 875.785 211.328V224H869.473ZM902.325 224.48C901.413 224.48 900.485 224.392 899.541 224.216C898.597 224.04 897.733 223.712 896.949 223.232C896.165 222.752 895.533 222.048 895.053 221.12C894.573 220.192 894.333 218.968 894.333 217.448C894.333 217.096 894.333 216.744 894.333 216.392C894.333 216.024 894.333 215.648 894.333 215.264V203.552H888.309V198.512H890.757C891.589 198.512 892.245 198.48 892.725 198.416C893.205 198.336 893.557 198.16 893.781 197.888C894.005 197.616 894.149 197.192 894.213 196.616C894.293 196.024 894.333 195.208 894.333 194.168V190.112H900.669V198.512H908.253V203.552H900.669V213.776C900.669 214.08 900.669 214.384 900.669 214.688C900.669 214.976 900.669 215.256 900.669 215.528C900.669 216.712 900.813 217.664 901.101 218.384C901.389 219.104 902.069 219.464 903.141 219.464C903.653 219.464 904.133 219.416 904.581 219.32C905.045 219.224 905.389 219.128 905.613 219.032V223.976C905.309 224.088 904.869 224.2 904.293 224.312C903.717 224.424 903.061 224.48 902.325 224.48ZM914.668 213.296V208.808H932.5L931.78 210.008C931.78 209.912 931.78 209.808 931.78 209.696C931.78 209.568 931.78 209.464 931.78 209.384C931.78 208.28 931.532 207.248 931.036 206.288C930.54 205.312 929.788 204.528 928.78 203.936C927.772 203.328 926.492 203.024 924.94 203.024C923.404 203.024 922.068 203.352 920.932 204.008C919.812 204.648 918.94 205.576 918.316 206.792C917.708 208.008 917.404 209.464 917.404 211.16C917.404 212.904 917.7 214.408 918.292 215.672C918.884 216.92 919.748 217.88 920.884 218.552C922.036 219.208 923.436 219.536 925.084 219.536C926.204 219.536 927.172 219.432 927.988 219.224C928.804 219.016 929.468 218.736 929.98 218.384C930.508 218.016 930.9 217.624 931.156 217.208C931.428 216.792 931.588 216.376 931.636 215.96H937.924C937.828 217.032 937.468 218.08 936.844 219.104C936.236 220.112 935.38 221.032 934.276 221.864C933.172 222.68 931.828 223.336 930.244 223.832C928.676 224.312 926.884 224.552 924.868 224.552C922.132 224.552 919.74 223.992 917.692 222.872C915.644 221.752 914.044 220.192 912.892 218.192C911.756 216.192 911.188 213.904 911.188 211.328C911.188 208.688 911.764 206.376 912.916 204.392C914.084 202.408 915.7 200.864 917.764 199.76C919.828 198.64 922.196 198.08 924.868 198.08C927.62 198.08 929.996 198.64 931.996 199.76C934.012 200.88 935.564 202.44 936.652 204.44C937.74 206.424 938.284 208.736 938.284 211.376C938.284 211.712 938.276 212.072 938.26 212.456C938.244 212.84 938.22 213.12 938.188 213.296H914.668ZM954.072 224.528C951.976 224.528 950.032 224.024 948.24 223.016C946.464 221.992 945.04 220.488 943.968 218.504C942.896 216.52 942.36 214.08 942.36 211.184C942.36 208.368 942.904 205.984 943.992 204.032C945.096 202.08 946.536 200.6 948.312 199.592C950.104 198.584 952.024 198.08 954.072 198.08C956.072 198.08 957.92 198.576 959.616 199.568C961.312 200.544 962.672 201.904 963.696 203.648C964.72 205.392 965.232 207.392 965.232 209.648C965.232 209.712 965.232 209.776 965.232 209.84C965.232 209.904 965.232 209.968 965.232 210.032L962.112 210.104C962.112 210.056 962.112 210.008 962.112 209.96C962.112 209.896 962.112 209.84 962.112 209.792C962.112 208.528 961.792 207.424 961.152 206.48C960.528 205.536 959.712 204.8 958.704 204.272C957.712 203.728 956.656 203.456 955.536 203.456C953.696 203.456 952.128 204.08 950.832 205.328C949.536 206.56 948.888 208.512 948.888 211.184C948.888 213.84 949.536 215.8 950.832 217.064C952.128 218.328 953.696 218.96 955.536 218.96C956.704 218.96 957.784 218.68 958.776 218.12C959.768 217.56 960.568 216.792 961.176 215.816C961.8 214.824 962.112 213.688 962.112 212.408L965.232 212.552C965.232 214.792 964.728 216.824 963.72 218.648C962.728 220.456 961.392 221.888 959.712 222.944C958.032 224 956.152 224.528 954.072 224.528ZM962.112 224V186.488H968.448V224H962.112ZM980.9 188.648L979.7 214.616H975.836L974.588 188.648H980.9ZM977.78 224.672C976.788 224.672 975.948 224.328 975.26 223.64C974.572 222.952 974.228 222.112 974.228 221.12C974.228 220.144 974.572 219.312 975.26 218.624C975.948 217.92 976.788 217.568 977.78 217.568C978.756 217.568 979.588 217.92 980.276 218.624C980.98 219.312 981.332 220.144 981.332 221.12C981.332 222.112 980.98 222.952 980.276 223.64C979.588 224.328 978.756 224.672 977.78 224.672Z" fill="white"/>
<rect x="584.5" y="289" width="176" height="48" rx="24" fill="white"/>
<path d="M614.38 319.176C613.543 319.176 612.812 319.043 612.188 318.776C611.564 318.509 611.079 318.109 610.732 317.576C610.385 317.037 610.212 316.371 610.212 315.576C610.212 315.485 610.212 315.405 610.212 315.336C610.212 315.261 610.212 315.179 610.212 315.088H612.316C612.316 315.168 612.316 315.243 612.316 315.312C612.316 315.376 612.316 315.451 612.316 315.536C612.316 316.176 612.489 316.656 612.836 316.976C613.188 317.291 613.705 317.448 614.388 317.448C615.076 317.448 615.601 317.333 615.964 317.104C616.332 316.875 616.516 316.507 616.516 316C616.516 315.632 616.391 315.32 616.14 315.064C615.895 314.803 615.556 314.573 615.124 314.376C614.692 314.179 614.201 313.995 613.652 313.824C613.033 313.632 612.471 313.384 611.964 313.08C611.457 312.776 611.052 312.392 610.748 311.928C610.444 311.464 610.292 310.893 610.292 310.216C610.292 309.539 610.465 308.963 610.812 308.488C611.164 308.013 611.644 307.653 612.252 307.408C612.865 307.157 613.561 307.032 614.34 307.032C615.156 307.032 615.873 307.16 616.492 307.416C617.116 307.672 617.604 308.053 617.956 308.56C618.308 309.067 618.484 309.699 618.484 310.456C618.484 310.557 618.484 310.645 618.484 310.72C618.484 310.795 618.484 310.88 618.484 310.976H616.372C616.372 310.907 616.372 310.837 616.372 310.768C616.372 310.693 616.372 310.621 616.372 310.552C616.372 309.944 616.207 309.496 615.876 309.208C615.545 308.915 615.044 308.768 614.372 308.768C613.716 308.768 613.212 308.883 612.86 309.112C612.508 309.341 612.332 309.707 612.332 310.208C612.332 310.581 612.452 310.893 612.692 311.144C612.932 311.395 613.26 311.613 613.676 311.8C614.097 311.981 614.575 312.165 615.108 312.352C615.817 312.587 616.431 312.853 616.948 313.152C617.465 313.445 617.865 313.813 618.148 314.256C618.431 314.693 618.572 315.251 618.572 315.928C618.572 316.621 618.396 317.211 618.044 317.696C617.697 318.176 617.209 318.544 616.58 318.8C615.956 319.051 615.223 319.176 614.38 319.176ZM624.537 319.176C623.641 319.176 622.849 318.992 622.161 318.624C621.473 318.256 620.935 317.739 620.545 317.072C620.156 316.405 619.961 315.624 619.961 314.728C619.961 313.837 620.156 313.064 620.545 312.408C620.935 311.752 621.473 311.248 622.161 310.896C622.849 310.539 623.641 310.36 624.537 310.36C625.209 310.36 625.804 310.459 626.321 310.656C626.839 310.853 627.273 311.117 627.625 311.448C627.983 311.773 628.255 312.133 628.441 312.528C628.628 312.917 628.721 313.307 628.721 313.696C628.721 313.707 628.721 313.717 628.721 313.728C628.721 313.739 628.721 313.749 628.721 313.76H626.633C626.633 313.733 626.631 313.704 626.625 313.672C626.62 313.64 626.615 313.608 626.609 313.576C626.567 313.304 626.457 313.059 626.281 312.84C626.105 312.616 625.871 312.437 625.577 312.304C625.284 312.171 624.929 312.104 624.513 312.104C624.071 312.104 623.665 312.203 623.297 312.4C622.935 312.592 622.644 312.883 622.425 313.272C622.212 313.661 622.105 314.147 622.105 314.728C622.105 315.304 622.212 315.795 622.425 316.2C622.639 316.6 622.927 316.907 623.289 317.12C623.657 317.328 624.065 317.432 624.513 317.432C624.988 317.432 625.375 317.36 625.673 317.216C625.977 317.067 626.207 316.869 626.361 316.624C626.516 316.373 626.604 316.101 626.625 315.808H628.721C628.721 316.203 628.631 316.6 628.449 317C628.268 317.395 628.001 317.757 627.649 318.088C627.297 318.419 626.86 318.683 626.337 318.88C625.82 319.077 625.22 319.176 624.537 319.176ZM636.478 319V315.936C636.478 315.808 636.478 315.648 636.478 315.456C636.478 315.264 636.478 315.069 636.478 314.872C636.478 314.675 636.478 314.512 636.478 314.384C636.478 313.68 636.34 313.141 636.062 312.768C635.79 312.389 635.324 312.2 634.662 312.2C634.22 312.2 633.841 312.288 633.526 312.464C633.217 312.635 632.98 312.875 632.814 313.184C632.649 313.493 632.566 313.851 632.566 314.256L631.798 313.848C631.798 313.171 631.95 312.571 632.254 312.048C632.564 311.52 632.99 311.107 633.534 310.808C634.078 310.509 634.702 310.36 635.406 310.36C636.436 310.36 637.222 310.667 637.766 311.28C638.31 311.888 638.582 312.736 638.582 313.824C638.582 314.101 638.582 314.432 638.582 314.816C638.582 315.195 638.582 315.621 638.582 316.096V319H636.478ZM630.462 319V306.496H632.566V319H630.462ZM641.403 315.432V313.936H647.347L647.107 314.336C647.107 314.304 647.107 314.269 647.107 314.232C647.107 314.189 647.107 314.155 647.107 314.128C647.107 313.76 647.024 313.416 646.859 313.096C646.693 312.771 646.443 312.509 646.107 312.312C645.771 312.109 645.344 312.008 644.827 312.008C644.315 312.008 643.869 312.117 643.491 312.336C643.117 312.549 642.827 312.859 642.619 313.264C642.416 313.669 642.315 314.155 642.315 314.72C642.315 315.301 642.413 315.803 642.611 316.224C642.808 316.64 643.096 316.96 643.475 317.184C643.859 317.403 644.325 317.512 644.875 317.512C645.248 317.512 645.571 317.477 645.843 317.408C646.115 317.339 646.336 317.245 646.507 317.128C646.683 317.005 646.813 316.875 646.899 316.736C646.989 316.597 647.043 316.459 647.059 316.32H649.155C649.123 316.677 649.003 317.027 648.795 317.368C648.592 317.704 648.307 318.011 647.939 318.288C647.571 318.56 647.123 318.779 646.595 318.944C646.072 319.104 645.475 319.184 644.803 319.184C643.891 319.184 643.093 318.997 642.411 318.624C641.728 318.251 641.195 317.731 640.811 317.064C640.432 316.397 640.243 315.635 640.243 314.776C640.243 313.896 640.435 313.125 640.819 312.464C641.208 311.803 641.747 311.288 642.435 310.92C643.123 310.547 643.912 310.36 644.803 310.36C645.72 310.36 646.512 310.547 647.179 310.92C647.851 311.293 648.368 311.813 648.731 312.48C649.093 313.141 649.275 313.912 649.275 314.792C649.275 314.904 649.272 315.024 649.267 315.152C649.261 315.28 649.253 315.373 649.243 315.432H641.403ZM654.537 319.176C653.838 319.176 653.19 319.008 652.593 318.672C652.001 318.331 651.526 317.829 651.169 317.168C650.812 316.507 650.633 315.693 650.633 314.728C650.633 313.789 650.814 312.995 651.177 312.344C651.545 311.693 652.025 311.2 652.617 310.864C653.214 310.528 653.854 310.36 654.537 310.36C655.204 310.36 655.82 310.525 656.385 310.856C656.95 311.181 657.404 311.635 657.745 312.216C658.086 312.797 658.257 313.464 658.257 314.216C658.257 314.237 658.257 314.259 658.257 314.28C658.257 314.301 658.257 314.323 658.257 314.344L657.217 314.368C657.217 314.352 657.217 314.336 657.217 314.32C657.217 314.299 657.217 314.28 657.217 314.264C657.217 313.843 657.11 313.475 656.897 313.16C656.689 312.845 656.417 312.6 656.081 312.424C655.75 312.243 655.398 312.152 655.025 312.152C654.412 312.152 653.889 312.36 653.457 312.776C653.025 313.187 652.809 313.837 652.809 314.728C652.809 315.613 653.025 316.267 653.457 316.688C653.889 317.109 654.412 317.32 655.025 317.32C655.414 317.32 655.774 317.227 656.105 317.04C656.436 316.853 656.702 316.597 656.905 316.272C657.113 315.941 657.217 315.563 657.217 315.136L658.257 315.184C658.257 315.931 658.089 316.608 657.753 317.216C657.422 317.819 656.977 318.296 656.417 318.648C655.857 319 655.23 319.176 654.537 319.176ZM657.217 319V306.496H659.329V319H657.217ZM664.456 319.16C663.853 319.16 663.352 319.059 662.952 318.856C662.557 318.653 662.245 318.387 662.016 318.056C661.792 317.725 661.632 317.36 661.536 316.96C661.445 316.56 661.4 316.16 661.4 315.76C661.4 315.563 661.4 315.357 661.4 315.144C661.4 314.931 661.4 314.715 661.4 314.496V310.504H663.512V314.168C663.512 314.36 663.512 314.544 663.512 314.72C663.512 314.896 663.512 315.061 663.512 315.216C663.512 315.595 663.557 315.947 663.648 316.272C663.738 316.592 663.904 316.851 664.144 317.048C664.389 317.245 664.733 317.344 665.176 317.344C665.597 317.344 665.96 317.221 666.264 316.976C666.568 316.725 666.802 316.411 666.968 316.032C667.138 315.653 667.224 315.269 667.224 314.88L667.944 315.36C667.944 315.877 667.864 316.365 667.704 316.824C667.544 317.277 667.312 317.68 667.008 318.032C666.704 318.384 666.336 318.661 665.904 318.864C665.477 319.061 664.994 319.16 664.456 319.16ZM667.224 319V310.504H669.328V319H667.224ZM673.545 306.496V319H671.473V306.496H673.545ZM676.481 315.432V313.936H682.425L682.185 314.336C682.185 314.304 682.185 314.269 682.185 314.232C682.185 314.189 682.185 314.155 682.185 314.128C682.185 313.76 682.102 313.416 681.937 313.096C681.771 312.771 681.521 312.509 681.185 312.312C680.849 312.109 680.422 312.008 679.905 312.008C679.393 312.008 678.947 312.117 678.569 312.336C678.195 312.549 677.905 312.859 677.697 313.264C677.494 313.669 677.393 314.155 677.393 314.72C677.393 315.301 677.491 315.803 677.689 316.224C677.886 316.64 678.174 316.96 678.553 317.184C678.937 317.403 679.403 317.512 679.953 317.512C680.326 317.512 680.649 317.477 680.921 317.408C681.193 317.339 681.414 317.245 681.585 317.128C681.761 317.005 681.891 316.875 681.977 316.736C682.067 316.597 682.121 316.459 682.137 316.32H684.233C684.201 316.677 684.081 317.027 683.873 317.368C683.67 317.704 683.385 318.011 683.017 318.288C682.649 318.56 682.201 318.779 681.673 318.944C681.15 319.104 680.553 319.184 679.881 319.184C678.969 319.184 678.171 318.997 677.489 318.624C676.806 318.251 676.273 317.731 675.889 317.064C675.51 316.397 675.321 315.635 675.321 314.776C675.321 313.896 675.513 313.125 675.897 312.464C676.286 311.803 676.825 311.288 677.513 310.92C678.201 310.547 678.99 310.36 679.881 310.36C680.798 310.36 681.59 310.547 682.257 310.92C682.929 311.293 683.446 311.813 683.809 312.48C684.171 313.141 684.353 313.912 684.353 314.792C684.353 314.904 684.35 315.024 684.345 315.152C684.339 315.28 684.331 315.373 684.321 315.432H676.481ZM693.031 319.176C692.396 319.176 691.839 319.077 691.359 318.88C690.879 318.677 690.503 318.387 690.231 318.008C689.959 317.629 689.823 317.173 689.823 316.64C689.823 316.059 689.98 315.581 690.295 315.208C690.615 314.829 691.044 314.539 691.583 314.336C692.121 314.128 692.719 313.995 693.375 313.936C694.345 313.84 695.023 313.749 695.407 313.664C695.796 313.573 695.991 313.429 695.991 313.232C695.991 313.227 695.991 313.224 695.991 313.224C695.991 313.219 695.991 313.216 695.991 313.216C695.991 312.843 695.823 312.555 695.487 312.352C695.151 312.149 694.676 312.048 694.062 312.048C693.417 312.048 692.921 312.163 692.575 312.392C692.233 312.616 692.063 312.973 692.063 313.464H689.983C689.983 312.797 690.159 312.235 690.511 311.776C690.868 311.312 691.356 310.96 691.975 310.72C692.593 310.48 693.295 310.36 694.079 310.36C694.809 310.36 695.479 310.469 696.087 310.688C696.695 310.907 697.183 311.237 697.551 311.68C697.919 312.123 698.102 312.675 698.102 313.336C698.102 313.448 698.102 313.56 698.102 313.672C698.102 313.784 698.102 313.896 698.102 314.008V317.208C698.102 317.411 698.108 317.611 698.119 317.808C698.135 318 698.164 318.173 698.207 318.328C698.26 318.499 698.324 318.643 698.399 318.76C698.473 318.877 698.532 318.957 698.575 319H696.495C696.457 318.963 696.404 318.891 696.335 318.784C696.271 318.672 696.212 318.544 696.159 318.4C696.105 318.24 696.065 318.069 696.039 317.888C696.012 317.701 695.999 317.496 695.999 317.272L696.415 317.56C696.255 317.885 696.009 318.171 695.679 318.416C695.353 318.656 694.964 318.843 694.511 318.976C694.057 319.109 693.564 319.176 693.031 319.176ZM693.543 317.52C693.98 317.52 694.385 317.445 694.759 317.296C695.132 317.147 695.433 316.917 695.663 316.608C695.892 316.293 696.007 315.891 696.007 315.4V314.264L696.519 314.84C696.177 314.968 695.767 315.075 695.287 315.16C694.807 315.24 694.321 315.304 693.831 315.352C693.201 315.411 692.727 315.52 692.407 315.68C692.092 315.84 691.935 316.101 691.935 316.464C691.935 316.816 692.068 317.08 692.335 317.256C692.601 317.432 693.004 317.52 693.543 317.52ZM713.352 314.752C713.352 315.253 713.259 315.763 713.072 316.28C712.885 316.797 712.6 317.277 712.216 317.72C711.837 318.157 711.357 318.509 710.776 318.776C710.195 319.043 709.512 319.176 708.728 319.176C707.667 319.176 706.76 318.917 706.008 318.4C705.261 317.877 704.691 317.16 704.296 316.248C703.907 315.336 703.712 314.288 703.712 313.104C703.712 311.915 703.907 310.864 704.296 309.952C704.691 309.04 705.261 308.325 706.008 307.808C706.76 307.291 707.667 307.032 708.728 307.032C709.608 307.032 710.36 307.2 710.984 307.536C711.608 307.872 712.107 308.304 712.48 308.832C712.853 309.36 713.104 309.912 713.232 310.488C713.312 310.824 713.352 311.144 713.352 311.448H711.232C711.232 311.293 711.221 311.133 711.2 310.968C711.141 310.563 711.005 310.195 710.792 309.864C710.584 309.528 710.307 309.264 709.96 309.072C709.613 308.875 709.203 308.776 708.728 308.776C708.163 308.776 707.664 308.933 707.232 309.248C706.805 309.563 706.469 310.04 706.224 310.68C705.979 311.32 705.856 312.128 705.856 313.104C705.856 314.069 705.979 314.875 706.224 315.52C706.469 316.165 706.805 316.648 707.232 316.968C707.664 317.288 708.163 317.448 708.728 317.448C709.133 317.448 709.491 317.373 709.8 317.224C710.109 317.075 710.371 316.875 710.584 316.624C710.797 316.368 710.957 316.08 711.064 315.76C711.176 315.44 711.232 315.104 711.232 314.752H713.352ZM718.031 319.176C717.396 319.176 716.839 319.077 716.359 318.88C715.879 318.677 715.503 318.387 715.231 318.008C714.959 317.629 714.823 317.173 714.823 316.64C714.823 316.059 714.98 315.581 715.295 315.208C715.615 314.829 716.044 314.539 716.583 314.336C717.121 314.128 717.719 313.995 718.375 313.936C719.345 313.84 720.023 313.749 720.407 313.664C720.796 313.573 720.991 313.429 720.991 313.232C720.991 313.227 720.991 313.224 720.991 313.224C720.991 313.219 720.991 313.216 720.991 313.216C720.991 312.843 720.823 312.555 720.487 312.352C720.151 312.149 719.676 312.048 719.062 312.048C718.417 312.048 717.921 312.163 717.575 312.392C717.233 312.616 717.063 312.973 717.063 313.464H714.983C714.983 312.797 715.159 312.235 715.511 311.776C715.868 311.312 716.356 310.96 716.975 310.72C717.593 310.48 718.295 310.36 719.079 310.36C719.809 310.36 720.479 310.469 721.087 310.688C721.695 310.907 722.183 311.237 722.551 311.68C722.919 312.123 723.102 312.675 723.102 313.336C723.102 313.448 723.102 313.56 723.102 313.672C723.102 313.784 723.102 313.896 723.102 314.008V317.208C723.102 317.411 723.108 317.611 723.119 317.808C723.135 318 723.164 318.173 723.207 318.328C723.26 318.499 723.324 318.643 723.399 318.76C723.473 318.877 723.532 318.957 723.575 319H721.495C721.457 318.963 721.404 318.891 721.335 318.784C721.271 318.672 721.212 318.544 721.159 318.4C721.105 318.24 721.065 318.069 721.039 317.888C721.012 317.701 720.999 317.496 720.999 317.272L721.415 317.56C721.255 317.885 721.009 318.171 720.679 318.416C720.353 318.656 719.964 318.843 719.511 318.976C719.057 319.109 718.564 319.176 718.031 319.176ZM718.543 317.52C718.98 317.52 719.385 317.445 719.759 317.296C720.132 317.147 720.433 316.917 720.663 316.608C720.892 316.293 721.007 315.891 721.007 315.4V314.264L721.519 314.84C721.177 314.968 720.767 315.075 720.287 315.16C719.807 315.24 719.321 315.304 718.831 315.352C718.201 315.411 717.727 315.52 717.407 315.68C717.092 315.84 716.935 316.101 716.935 316.464C716.935 316.816 717.068 317.08 717.335 317.256C717.601 317.432 718.004 317.52 718.543 317.52ZM727.248 306.496V319H725.176V306.496H727.248ZM731.592 306.496V319H729.52V306.496H731.592Z" fill="#5E5DEF"/>
</g>
<defs>
<linearGradient id="paint0_linear_0_431" x1="672" y1="0" x2="439.5" y2="817" gradientUnits="userSpaceOnUse">
<stop stop-color="#3171DE"/>
<stop offset="1" stop-color="#4AC0F2"/>
</linearGradient>
</defs>
</svg>
